<!-- <svg version="1.2" xmlns="http://www.w3.org/2000/svg" viewBox="0 0 100 100">
	<title>dix</title>
	<style>
		.s0 { fill: #f426c6 } 
		.s1 { fill: #ffffff } 
	</style>
	<g id="dix">
		<path id="Path 0" fill-rule="evenodd" class="s0" />
		<path id="Path 1" class="s1" />
	</g>
</svg> -->

<svg version="1.1" xmlns="http://www.w3.org/2000/svg" xmlns:xlink="http://www.w3.org/1999/xlink" x="0px" y="0px" viewBox="0 0 100 100" style="enable-background:new 0 0 100 100;" xml:space="preserve">
    <path marker-start="none" marker-end="none" style="fill-rule:evenodd;clip-rule:evenodd;fill:#f426c6;" d="m138.3 68.1c4.1-0.1 5.1 0.3 7.9 3.2 2.9 3 3.1 3.5 1.8 12.7l3.2-3.6c1.8-1.9 5.1-4.4 7.3-5.5 2.6-1.2 6.2-1.9 10.5-1.9 5.5 0 7.2 0.4 11.2 3 3.1 1.9 5.6 4.5 7 7.3 1.6 3.2 2.1 6 2.1 11.7 0 4.9-0.6 8.9-1.7 11.5-1 2.2-2.5 4.8-3.4 5.8-1.6 1.7-1 1.8 14.3 1.7 14.3-0.1 16.3 0.1 18.5 1.8 1.4 1.1 4.5 6 11.5 20l4.3-5.7c2.4-3.1 5.2-7.3 6.3-9.3 1-2.1 2.9-4.5 4.1-5.3 1.9-1.2 6-1.5 39.8-1.5l3 3c2.2 2.2 3 3.9 3 6.5 0 3-1.1 4.6-7.9 11.8-4.4 4.5-13.8 15.4-33.7 40.2l8.3 16.8c5.7 11.5 9.2 17.3 11 18.6 1.6 1 4.6 2.4 6.8 3.1 2.2 0.7 5.3 1.8 6.9 2.4 1.6 0.6 3.8 2.2 4.8 3.6 1 1.4 1.8 4.1 1.8 6 0 2.9-0.9 4.3-4.9 8-2.6 2.5-7.2 5.8-10.2 7.5-4.9 2.7-6.2 3-14.9 3-7.9 0-10.2-0.4-13.8-2.3-2.3-1.2-6.1-3.9-8.3-5.9-2.3-2.1-5.6-5.8-7.2-8.3-1.7-2.5-4.5-7.3-9.2-16.9l-4.5 5.7c-2.5 3.1-5.8 7.7-7.4 10.2-1.6 2.5-3.6 5-4.5 5.7-1.1 0.9-7.2 1.2-20.4 1.3-10.5 0-19.6-0.4-20.7-1q-2-1-2.5 0c-0.3 0.6-7.8 1-38.5 1l-3-3c-1.7-1.7-3-3.8-3-4.7 0.1-1.7-0.1-1.7-1.7-0.2-1 0.9-4.6 3.1-8.1 4.8-3.4 1.7-9 3.8-12.5 4.6-3.5 0.8-10.9 1.5-17.2 1.5-6.1 0-13-0.5-15.5-1.1-2.5-0.6-6.8-2.1-9.5-3.4-2.8-1.3-7-4.1-9.5-6.3-2.5-2.1-6.4-6.7-8.8-10.3-2.4-3.5-5.3-9.6-6.5-13.4-1.8-5.8-2.2-9.4-2.1-21.5 0-10.4 0.5-16.3 1.7-21 0.9-3.6 3.7-10.6 6.1-15.5 2.5-4.9 7-12 10-15.7 3.1-3.8 8-8.7 10.8-11 2.9-2.2 7.8-5.3 10.8-6.7 4.5-2 7.4-2.6 15.5-2.9 8.3-0.3 10.9 0 15.5 1.7 3 1.1 5.5 1.9 5.6 1.8 0-0.1 0.8-3.8 1.7-8.2 0.9-4.4 1.7-11 1.7-14.7 0-5.7 0.4-7.2 2.2-9.3 1.6-1.6 6.6-3.8 15.8-6.9 7.7-2.5 15.5-4.5 18.2-4.5zm2 50.6c0.2 0.1 2.6-0.5 5.5-1.5l5.1-1.7c-3.7-4.3-5-7-5.3-8.7-0.3-1.8-0.6-4.6-0.7-6.2-0.2-1.8-1.2 1-2.6 7.5-1.2 5.7-2.1 10.5-2 10.6zm-8.3 34.1c-2.2 9.7-6.1 26.5-8.6 37.2-2.5 10.7-4.9 21.3-5.4 23.5-0.5 2.4-0.5 3.6 0.1 3 0.5-0.6 2.5-7.3 4.4-15 1.9-7.7 5.7-23.9 8.5-36 2.8-12.1 5.3-24.1 5.6-26.8 0.4-2.6 0.4-4.7 0.1-4.7-0.3 0-0.6 0.2-0.6 0.5 0 0.3-1.8 8.5-4.1 18.2zm33.6 47.8c-0.7 2.8-1.6 6.8-2 9l-0.6 4c8.7-8.5 16.5-17.4 22.9-25.3 6.5-7.9 12.1-15 12.7-15.7 0.7-1-1.2-5.9-7-18-4.4-9.2-8.7-17.3-9.5-18-1.3-1.2-2.3 2.3-8.4 28.8-3.8 16.6-7.5 32.5-8.1 35.2zm-92.2-46.2c-1.8 2.9-4.2 7.9-5.4 11.2-1.1 3.3-2.3 9.8-2.6 14.5-0.4 5.2-0.1 10 0.6 12.3 0.6 2 2.1 4.4 3.3 5.2 1.3 0.9 3.9 1.4 5.8 1.3l3.4-0.3 9.7-43c-3.9-3.9-5.1-5.5-5.1-6.1-0.1-0.7-0.7-1.4-1.4-1.7-0.7-0.2-2.2 0-3.2 0.5-1.1 0.5-3.4 3.3-5.1 6.1z"/>
    <path marker-start="none" marker-end="none" style="fill-rule:evenodd;clip-rule:evenodd;fill:#ffffff;" d="m128.1 78.9l-14.1 4.6c1 7.3 0.6 11.6-0.4 16-0.9 3.8-2.3 9.7-3.1 13-0.8 3.3-5.3 22.9-10 43.5-4.7 20.6-9.1 39.7-9.7 42.5-1.2 4.6-1.6 5-5.8 6.3-2.5 0.7-6.6 1.2-9.1 1-3.1-0.2-5.9-1.3-8.7-3.3-3-2.1-4.9-4.5-6.4-8-1.8-4.4-2-6.4-1.5-16 0.3-7.2 1.2-13.2 2.6-17.5 1.1-3.6 3.7-9.4 5.8-12.9 2.2-3.6 5.5-7.7 7.8-9.3 2.9-2.1 5.1-2.8 8.3-2.8 2.3 0 5.2 0.6 6.5 1.4 1.2 0.8 2.8 2.8 3.5 4.5 0.6 1.7 1.7 2.9 2.2 2.6 0.6-0.3 2.3-2.9 4-5.8 2.1-3.7 3-6.5 3-10 0-3.8-0.5-5.2-2.7-7.5-1.6-1.5-4.8-3.6-7.3-4.6-3.5-1.4-6.3-1.7-12.5-1.4-6.1 0.4-9.3 1.1-13.2 3.1-2.9 1.5-7.9 5.3-11.2 8.4-3.2 3.2-7.2 7.8-8.8 10.3-1.7 2.5-4.2 6.7-5.6 9.5-1.4 2.7-3.2 7.5-4.1 10.5-0.9 3-2 9.1-2.6 13.5-0.7 5.4-0.7 10.7 0 16.2 0.5 4.6 2.2 11.3 3.7 15 2 5.2 4.1 8.2 8.8 12.8 4.5 4.4 7.8 6.7 12.5 8.5 5.7 2.2 8 2.5 18.5 2.4 10-0.1 13-0.5 18-2.4 3.3-1.2 7.9-3.3 10.3-4.6 3.7-2.1 4.3-2.9 4.8-6.7 0.4-2.3 2.6-12.5 4.9-22.7 2.4-10.2 8.4-36.3 13.5-58 5-21.7 9.9-43.3 10.9-47.9 1-4.6 1.8-8.5 1.7-8.6-0.2-0.1-6.6 1.9-14.5 4.4zm36.1 3.1c-1.7 1.1-4.1 3.8-5.2 6-1.1 2.2-2 5.7-2 7.7 0 2.1 0.4 5.1 0.9 6.8 0.6 1.6 2.2 3.8 3.6 4.7 1.7 1.2 4.4 1.8 8.2 1.8 5.3-0.1 6.1-0.4 9-3.5 1.8-1.9 3.8-5.4 4.4-7.8 0.6-2.3 0.7-6 0.3-8.2-0.4-2.4-1.8-5.1-3.5-6.8-2.3-2.2-3.8-2.7-7.7-2.7-2.9 0-5.9 0.7-8 2zm-2.2 38.7l-13.6 4.5c-0.1 17.8-1 23.2-5.8 43.8-3.2 13.5-7 29.4-8.5 35.5-1.5 6.1-3.7 12.3-4.9 14-1.2 1.6-1.8 3.3-1.4 3.8 0.4 0.4 7 0.7 14.7 0.7h14c0.1-13.8 2-23.3 8.4-50.5 4.5-19.3 9.1-39.1 10.2-44 1-5 2-9.8 2.2-10.8 0.1-0.9-0.2-1.7-0.8-1.6-0.5 0-7.1 2.1-14.5 4.6zm25-0.2c0 0.3 1.9 2.9 4.2 5.7 2.2 2.9 6.2 9.8 8.8 15.3 2.6 5.5 6.8 14.2 9.4 19.2l4.6 9.3c-17.3 21.3-23.7 29.1-25.3 31-1.6 1.9-6.7 7.4-11.3 12.2-4.6 4.9-8.1 9-7.6 9.3 0.4 0.3 7.3 0.5 15.4 0.5 14.3 0 14.8-0.1 15.9-2.3 0.7-1.2 4.2-6 7.8-10.7 3.6-4.7 7.3-9.4 8.2-10.5 0.9-1.1 2.8-3.4 4.2-5l2.5-3c11.4 23.6 15 29.5 18.1 32.9 2.5 2.6 6.2 5.6 8.1 6.6 1.9 0.9 5 2 6.7 2.4 1.8 0.3 5.4 0.1 8-0.5 2.7-0.6 7.3-2.9 10.5-5.2 3.2-2.3 5.6-4.4 5.4-4.7-0.2-0.3-2.5-1.1-5.2-1.8-2.7-0.8-6.6-2.2-8.7-3.3-2-1-4.8-3.4-6.1-5.2-1.3-1.7-6.5-11.5-11.6-21.7-8.5-17-9.1-18.7-7.9-20.7 0.8-1.2 5.9-7.7 11.4-14.4 5.5-6.7 12-14.7 14.4-17.8 2.4-3.1 7.1-8.2 10.3-11.4 3.2-3.1 5.5-5.9 5-6.2-0.4-0.3-7.3-0.5-15.5-0.5h-14.7c-4.1 7.4-9.2 14.4-13.9 20.3l-8.6 10.8-15-30.6c-21.3-0.4-27.5-0.3-27.5 0z"/>
</svg>